<svg id="Layer_1" data-name="Layer 1" xmlns="http://www.w3.org/2000/svg" viewBox="0 0 140 50"><defs><style>.cls-1{fill:#37474f;}.cls-2{fill:#00b276;}</style></defs><title>logo</title><path class="cls-1" d="M61.61,5.38V2.12H73V5.25H65.86v5.6H73V14H65.86V20.1H73v3.13H61.61Z"/><path class="cls-1" d="M82.71,2.1h2.73l6.3,17.21,1.77,3.92H88.93l-1.8-4.9h-7l-1.86,4.9H74.49Zm-1.56,13h5.06L84,9l-.28-1.23L83.43,9Z"/><path class="cls-1" d="M107.54,23.23l-5.25-7.46H100.8v7.46H96.43V2.12h6.24c3.8,0,7.46,2.09,7.46,6.58a7.37,7.37,0,0,1-4,6.16l6.54,8.37ZM102.1,12.77a4,4,0,0,0,3.77-4.07A3.54,3.54,0,0,0,102.1,5h-1.42v7.74Z"/><path class="cls-1" d="M133.44,20.51v2.72h-2.52L119,9.27l.18,11.24v2.72h-4V2.12h2.87l11.56,14.16-.22-10.9V2.12h3.86Z"/><path class="cls-2" d="M86.44,47.57l-4.18-6H81.07v6H77.58V30.74h5c3,0,6,1.66,6,5.24a5.88,5.88,0,0,1-3.18,4.91l5.22,6.68Zm-4.33-8.34a3.19,3.19,0,0,0,3-3.25,2.83,2.83,0,0,0-3-2.93H81v6.18Z"/><path class="cls-2" d="M61.24,30.74h14v2.54H69.81L70,45.4v2.17H66.53V33.28H61.24Z"/><path class="cls-1" d="M96.14,30.74V41.27c0,2.52,1.62,4.16,3.78,4.16a4,4,0,0,0,3.91-4.34V30.74h2.9V40.82c0,4.23-2.83,7.08-7.26,7.08-6.45,0-6.6-6-6.6-6.43V30.74Z"/><path class="cls-2" d="M109.9,43.36a7.5,7.5,0,0,0,4.71,2.09A2.21,2.21,0,0,0,117,43.36c0-2.87-7.15-3-7.15-8a4.86,4.86,0,0,1,5.11-5,9,9,0,0,1,4.69,1.26L119,34.21a7,7,0,0,0-4.13-1.38,2,2,0,0,0-2.05,1.91c0,2.93,7.24,2.9,7.24,8.07a5,5,0,0,1-5.27,5.09,8,8,0,0,1-5.14-1.72Z"/><path class="cls-2" d="M120.89,30.74h14v2.54h-5.44V47.57h-3.28V33.28h-5.29Z"/><path class="cls-1" d="M16.85,14.23V19a20.81,20.81,0,0,0,6,14.8l5,4.91,5-4.91a20.85,20.85,0,0,0,6-14.8V14.23A17.42,17.42,0,0,0,16.85,14.23Zm5.85,7.85h7.05v1.66h-7Zm10.25,7H22.7V27.43H33Zm0-10.71H22.7V16.73H33Z"/><path class="cls-1" d="M5.1,2.13V47.57H50.55V2.13ZM40.45,19a22.49,22.49,0,0,1-6.48,16L27.82,41l-6.14-6.05A22.49,22.49,0,0,1,15.2,19V13.44l.3-.25a19.16,19.16,0,0,1,24.65,0l.3.25Z"/></svg>